# xmcd CD database file
#
# Track frame offsets:
#	150
#	18057
#	42895
#	61257
#	69992
#	98350
#	138082
#	149750
#	168407
#
# Disc length: 2446 seconds
#
# Revision: 0
# Processed by: cddbd v1.5.2PL0 Copyright (c) Steve Scherf et al.
# Submitted via: CDex 1.51
#
DISCID=6d098c09
DTITLE=Don Scaletta - All in Good Time
DYEAR=1964
DGENRE=Jazz
TTITLE0=Exodus
TTITLE1=You're My Girl
TTITLE2=Walk with Buddha
TTITLE3=They Can't Make Her Cry
TTITLE4=Secret Love
TTITLE5=We Kiss in a Shadow
TTITLE6=Chim Chim Cher-ee
TTITLE7=Here's That Rainy Day
TTITLE8=Bitter Wine
EXTD=YEAR: 1964
EXTT0=
EXTT1=
EXTT2=
EXTT3=
EXTT4=
EXTT5=
EXTT6=
EXTT7=
EXTT8=
PLAYORDER=
